<?xml version="1.0" encoding="UTF-8"?>
<svg width="28px" height="28px" viewBox="0 0 28 28" version="1.1" xmlns="http://www.w3.org/2000/svg" xmlns:xlink="http://www.w3.org/1999/xlink">
                                <path d="M7.75303168,-4.4408921e-16 C8.05706632,-7.21984071e-16 8.3445883,0.138316864 8.5343473,0.375863873 L10.9827092,3.44080969 C11.1724682,3.6783567 11.4599902,3.81667357 11.7640248,3.81667357 L21,3.81667357 C22.1045695,3.81667357 23,4.71210407 23,5.81667357 L23,20.6219898 C23,21.7265593 22.1045695,22.6219898 21,22.6219898 L2,22.6219898 C0.8954305,22.6219898 1.3527075e-16,21.7265593 0,20.6219898 L0,2 C-1.3527075e-16,0.8954305 0.8954305,2.02906125e-16 2,-4.4408921e-16 L7.75303168,-4.4408921e-16 Z M10.1728698,13.7010918 L6.9367377,13.7010918 C6.7693044,13.7010918 6.60872874,13.7676044 6.49033551,13.8859976 C6.37194229,14.0043908 6.30542967,14.1649665 6.30542967,14.3323998 L6.30542967,17.568522 C6.30542967,17.9171838 6.58807591,18.1998301 6.9367377,18.1998301 L10.1728698,18.1998301 C10.5215316,18.1998301 10.8041778,17.9171838 10.8041778,17.568522 L10.8041778,14.3323998 C10.8041778,13.983738 10.5215316,13.7010918 10.1728698,13.7010918 Z M15.6642659,13.7010918 L12.4285483,13.7010918 C12.261115,13.7010918 12.1005393,13.7676044 11.9821461,13.8859976 C11.8637529,14.0043908 11.7972403,14.1649665 11.7972403,14.3323998 L11.7972403,17.568522 C11.7972403,17.9171838 12.0798865,18.1998301 12.4285483,18.1998301 L15.6642659,18.1998301 C15.8316992,18.1998301 15.9922749,18.1333174 16.1106681,18.0149242 C16.2290613,17.896531 16.2955739,17.7359553 16.2955739,17.568522 L16.2955739,14.3323998 C16.2955739,14.1649665 16.2290613,14.0043908 16.1106681,13.8859976 C15.9922749,13.7676044 15.8316992,13.7010918 15.6642659,13.7010918 Z M14.1962453,7.88174916 C14.02874,7.88174916 13.8681014,7.94831881 13.7496963,8.06680189 L11.8321759,9.9843223 C11.7136928,10.1027274 11.6471231,10.2633661 11.6471231,10.4308713 C11.6471231,10.5983766 11.7136928,10.7590152 11.8321759,10.8774204 L13.7496864,12.7953553 C13.8680916,12.9138383 14.0287302,12.980408 14.1962354,12.980408 C14.3637407,12.980408 14.5243793,12.9138383 14.6427845,12.7953553 L16.5607292,10.8774105 C16.6792123,10.7590053 16.745782,10.5983667 16.745782,10.4308615 C16.745782,10.2633562 16.6792123,10.1027176 16.5607292,9.98431243 L14.6427943,8.06680189 C14.5243892,7.94831881 14.3637506,7.88174916 14.1962453,7.88174916 Z M10.1728698,8.18169462 L6.9367377,8.18169462 C6.58807591,8.18169462 6.30542967,8.46435072 6.30542967,8.81301251 L6.30542967,12.0487104 C6.30542967,12.2161437 6.37194229,12.3767194 6.49033551,12.4951126 C6.60872874,12.6135058 6.7693044,12.6800184 6.9367377,12.6800184 L10.1728698,12.6800184 C10.5215316,12.6800184 10.8041778,12.3973722 10.8041778,12.0487104 L10.8041778,8.81300264 C10.8041778,8.46434085 10.5215316,8.18169462 10.1728698,8.18169462 Z"></path>

</svg>