<?xml version="1.0" encoding="UTF-8"?>
<svg width="28px" height="28px" viewBox="0 0 28 28" version="1.1" xmlns="http://www.w3.org/2000/svg" xmlns:xlink="http://www.w3.org/1999/xlink">
                               <path d="M4.695,1.62 L4.69527713,4.43254462 C4.69527713,4.94538046 5.08131732,5.36805178 5.57865601,5.42581689 L5.69527713,5.43254462 L15.3047229,5.43254462 C15.8570076,5.43254462 16.3047229,4.98482937 16.3047229,4.43254462 L16.304,1.62 L19,1.62027185 C20.1045695,1.62027185 21,2.51570235 21,3.62027185 L21,22 C21,23.1045695 20.1045695,24 19,24 L2,24 C0.8954305,24 1.3527075e-16,23.1045695 0,22 L0,3.62027185 C-1.3527075e-16,2.51570235 0.8954305,1.62027185 2,1.62027185 L4.695,1.62 Z M15.6684502,17.5517829 L5.33154976,17.5517829 C4.77926501,17.5517829 4.33154976,17.9994982 4.33154976,18.5517829 C4.33154976,19.1040677 4.77926501,19.5517829 5.33154976,19.5517829 L15.6684502,19.5517829 C16.220735,19.5517829 16.6684502,19.1040677 16.6684502,18.5517829 C16.6684502,17.9994982 16.220735,17.5517829 15.6684502,17.5517829 Z M15.6684502,13.0517829 L5.33154976,13.0517829 C4.77926501,13.0517829 4.33154976,13.4994982 4.33154976,14.0517829 C4.33154976,14.6040677 4.77926501,15.0517829 5.33154976,15.0517829 L15.6684502,15.0517829 C16.220735,15.0517829 16.6684502,14.6040677 16.6684502,14.0517829 C16.6684502,13.4994982 16.220735,13.0517829 15.6684502,13.0517829 Z M10.9026221,8.55178293 L5.33154976,8.55178293 C4.77926501,8.55178293 4.33154976,8.99949818 4.33154976,9.55178293 C4.33154976,10.1040677 4.77926501,10.5517829 5.33154976,10.5517829 L10.9026221,10.5517829 C11.4549069,10.5517829 11.9026221,10.1040677 11.9026221,9.55178293 C11.9026221,8.99949818 11.4549069,8.55178293 10.9026221,8.55178293 Z" id="形状结合"></path>

</svg>