<?xml version="1.0" encoding="UTF-8"?>
<svg width="28px" height="28px" viewBox="0 0 28 28" version="1.1" xmlns="http://www.w3.org/2000/svg" xmlns:xlink="http://www.w3.org/1999/xlink">
                                <path d="M20.4466407,6.92046136 C21.5512102,6.92046136 22.4466407,7.81589186 22.4466407,8.92046136 L22.4466407,21.3430709 C22.4466407,22.4476404 21.5512102,23.3430709 20.4466407,23.3430709 L3.55335934,23.3430709 C2.44878984,23.3430709 1.55335934,22.4476404 1.55335934,21.3430709 L1.55335934,8.92046136 C1.55335934,7.81589186 2.44878984,6.92046136 3.55335934,6.92046136 L20.4466407,6.92046136 Z M17.1329999,10.9250472 C16.7077548,10.5726481 16.0773497,10.6317014 15.7249506,11.0569464 L10.8160751,16.9800214 L8.12309759,14.8628366 C7.68891317,14.5215122 7.06023907,14.5967901 6.71891468,15.0309745 C6.37759029,15.4651589 6.45286822,16.093833 6.88705263,16.4351574 L10.3465368,19.1547537 C10.7728301,19.4898747 11.3885391,19.4241847 11.7345335,19.0066682 L17.2648991,12.3330964 C17.6172982,11.9078513 17.5582449,11.2774462 17.1329999,10.9250472 Z" id="形状结合"></path>

</svg>