<?xml version="1.0" encoding="UTF-8"?>
<svg width="28px" height="28px" viewBox="0 0 28 28" version="1.1" xmlns="http://www.w3.org/2000/svg" xmlns:xlink="http://www.w3.org/1999/xlink">
                                <path d="M7.75303168,0 C8.05706632,-2.77894861e-16 8.3445883,0.138316864 8.5343473,0.375863873 L10.9827092,3.44080969 C11.1724682,3.6783567 11.4599902,3.81667357 11.7640248,3.81667357 L21,3.81667357 C22.1045695,3.81667357 23,4.71210407 23,5.81667357 L23.0009293,13.2660833 C21.781201,12.0574737 20.1027752,11.3109949 18.25,11.3109949 C14.5220779,11.3109949 11.5,14.3330728 11.5,18.0609949 C11.5,19.8192814 12.1722817,21.420548 13.2738202,22.62177 L2,22.6219898 C0.8954305,22.6219898 1.3527075e-16,21.7265593 0,20.6219898 L0,2 C-1.3527075e-16,0.8954305 0.8954305,6.46995335e-16 2,0 L7.75303168,0 Z M10.5004647,12.1306483 L3.77805259,12.1306483 C3.22576784,12.1306483 2.77805259,12.5783636 2.77805259,13.1306483 C2.77805259,13.6829331 3.22576784,14.1306483 3.77805259,14.1306483 L10.5004647,14.1306483 C11.0527494,14.1306483 11.5004647,13.6829331 11.5004647,13.1306483 C11.5004647,12.5783636 11.0527494,12.1306483 10.5004647,12.1306483 Z M8.4426832,7.13064833 L3.77805259,7.13064833 C3.22576784,7.13064833 2.77805259,7.57836358 2.77805259,8.13064833 C2.77805259,8.68293308 3.22576784,9.13064833 3.77805259,9.13064833 L8.4426832,9.13064833 C8.99496795,9.13064833 9.4426832,8.68293308 9.4426832,8.13064833 C9.4426832,7.57836358 8.99496795,7.13064833 8.4426832,7.13064833 Z" id="形状结合"></path>
                                <path d="M18.2901441,12.891283 C21.1674681,12.891283 23.5,15.223815 23.5,18.101139 C23.5,20.9784629 21.1674681,23.3109949 18.2901441,23.3109949 C15.4128201,23.3109949 13.0802882,20.9784629 13.0802882,18.101139 C13.0802882,15.223815 15.4128201,12.891283 18.2901441,12.891283 Z M20.8475733,15.8536025 C20.5334492,15.6229762 20.0918417,15.6906646 19.8612154,16.0047888 L17.7901287,18.824257 L16.5480055,17.9771446 C16.2261081,17.7574982 15.7871001,17.8403891 15.5674538,18.1622865 C15.3478074,18.4841839 15.4306983,18.9231919 15.7525957,19.1428383 L17.5582742,20.3749409 C17.8723413,20.5892443 18.299735,20.5161628 18.5247512,20.2096799 L20.9987596,16.8399604 C21.2293859,16.5258363 21.1616975,16.0842288 20.8475733,15.8536025 Z" id="形状结合"></path>
           
</svg>