<?xml version="1.0" encoding="UTF-8"?>
<svg width="28px" height="28px" viewBox="0 0 28 28" version="1.1" xmlns="http://www.w3.org/2000/svg" xmlns:xlink="http://www.w3.org/1999/xlink">
                               <path d="M4.695,1.62 L4.69527713,4.43254462 C4.69527713,4.94538046 5.08131732,5.36805178 5.57865601,5.42581689 L5.69527713,5.43254462 L15.3047229,5.43254462 C15.8570076,5.43254462 16.3047229,4.98482937 16.3047229,4.43254462 L16.304,1.62 L19,1.62027185 C20.1045695,1.62027185 21,2.51570235 21,3.62027185 L21,22 C21,23.1045695 20.1045695,24 19,24 L2,24 C0.8954305,24 1.3527075e-16,23.1045695 0,22 L0,3.62027185 C-1.3527075e-16,2.51570235 0.8954305,1.62027185 2,1.62027185 L4.695,1.62 Z M9.63918811,7.13465455 L5.63918811,7.13465455 C5.22497455,7.13465455 4.88918811,7.47044098 4.88918811,7.88465455 L4.88918811,11.0213299 C4.88918811,11.4355435 5.22497455,11.7713299 5.63918811,11.7713299 L6.88918811,11.7713299 L6.88918811,19.6815905 C6.88918811,20.095804 7.22497455,20.4315905 7.63918811,20.4315905 L11.5038778,20.4315905 L11.5038778,21.2499282 C11.5038778,21.6641417 11.8396642,21.9999282 12.2538778,21.9999282 L16.2538778,21.9999282 C16.6680913,21.9999282 17.0038778,21.6641417 17.0038778,21.2499282 L17.0038778,18.1132528 C17.0038778,17.6990392 16.6680913,17.3632528 16.2538778,17.3632528 L12.2538778,17.3632528 C11.8396642,17.3632528 11.5038778,17.6990392 11.5038778,18.1132528 L11.5038778,18.9315905 L8.38918811,18.9312101 L8.389,15.308 L11.5038778,15.3080781 L11.5038778,15.5877352 C11.5038778,16.0019488 11.8396642,16.3377352 12.2538778,16.3377352 L16.2538778,16.3377352 C16.6680913,16.3377352 17.0038778,16.0019488 17.0038778,15.5877352 L17.0038778,12.4510598 C17.0038778,12.0368463 16.6680913,11.7010598 16.2538778,11.7010598 L12.2538778,11.7010598 C11.8396642,11.7010598 11.5038778,12.0368463 11.5038778,12.4510598 L11.5038778,13.8080781 L8.389,13.808 L8.38918811,11.7713299 L9.63918811,11.7713299 C10.0534017,11.7713299 10.3891881,11.4355435 10.3891881,11.0213299 L10.3891881,7.88465455 C10.3891881,7.47044098 10.0534017,7.13465455 9.63918811,7.13465455 Z M15.5038778,18.8632528 L15.5038778,20.4992528 L13.0038778,20.4992528 L13.0038778,18.8632528 L15.5038778,18.8632528 Z M15.5038778,13.2010598 L15.5038778,14.8370598 L13.0038778,14.8370598 L13.0038778,13.2010598 L15.5038778,13.2010598 Z M8.88918811,8.63465455 L8.88918811,10.2706545 L6.38918811,10.2706545 L6.38918811,8.63465455 L8.88918811,8.63465455 Z" id="形状结合"></path>

</svg>