<?xml version="1.0" encoding="UTF-8"?>
<svg width="28px" height="28px" viewBox="0 0 28 28" version="1.1" xmlns="http://www.w3.org/2000/svg" xmlns:xlink="http://www.w3.org/1999/xlink">
                               <path d="M4.695,1.62 L4.69527713,4.43254462 C4.69527713,4.94538046 5.08131732,5.36805178 5.57865601,5.42581689 L5.69527713,5.43254462 L15.3047229,5.43254462 C15.8570076,5.43254462 16.3047229,4.98482937 16.3047229,4.43254462 L16.304,1.62 L19,1.62027185 C20.1045695,1.62027185 21,2.51570235 21,3.62027185 L21,22 C21,23.1045695 20.1045695,24 19,24 L2,24 C0.8954305,24 5.7935996e-16,23.1045695 4.4408921e-16,22 L4.4408921e-16,3.62027185 C3.0881846e-16,2.51570235 0.8954305,1.62027185 2,1.62027185 L4.695,1.62 Z M15.977075,7.88787326 L5.02292505,7.88787326 C4.60871148,7.88787326 4.27292505,8.22365969 4.27292505,8.63787326 L4.27292505,18.2733906 C4.27292505,18.5729732 4.45120696,18.8438187 4.7263765,18.962273 L10.2034515,21.3200319 C10.3927531,21.4015221 10.6072469,21.4015221 10.7965485,21.3200319 L16.2736235,18.962273 C16.548793,18.8438187 16.727075,18.5729732 16.727075,18.2733906 L16.727075,8.63787326 C16.727075,8.22365969 16.3912885,7.88787326 15.977075,7.88787326 Z M15.226925,9.38787326 L15.226925,17.7788733 L10.499925,19.8138733 L5.77292505,17.7788733 L5.77292505,9.38787326 L15.226925,9.38787326 Z M10.5,10.6097627 L9.4256269,12.7866804 L7.02325562,13.1357654 L8.76162781,14.8302595 L8.35125381,17.2229235 L10.5,16.0932608 L12.6487462,17.2229235 L12.2383722,14.8302595 L13.9767444,13.1357654 L11.5743731,12.7866804 L10.5,10.6097627 Z" id="形状结合"></path>

</svg>