<?xml version="1.0" encoding="UTF-8"?>
<svg width="28px" height="28px" viewBox="0 0 28 28" version="1.1" xmlns="http://www.w3.org/2000/svg" xmlns:xlink="http://www.w3.org/1999/xlink">
                              <path d="M7.75303168,-4.4408921e-16 C8.05706632,-7.21984071e-16 8.3445883,0.138316864 8.5343473,0.375863873 L10.9827092,3.44080969 C11.1724682,3.6783567 11.4599902,3.81667357 11.7640248,3.81667357 L21,3.81667357 C22.1045695,3.81667357 23,4.71210407 23,5.81667357 L23,20.6219898 C23,21.7265593 22.1045695,22.6219898 21,22.6219898 L2,22.6219898 C0.8954305,22.6219898 1.3527075e-16,21.7265593 0,20.6219898 L0,2 C-1.3527075e-16,0.8954305 0.8954305,2.02906125e-16 2,-4.4408921e-16 L7.75303168,-4.4408921e-16 Z M14.9605098,16.1484993 C14.8441001,16.5460187 15.0719846,16.9626405 15.469504,17.0790501 C16.4916317,17.3783701 16.9636974,17.692937 16.9636974,17.7741774 C16.9636974,18.234859 14.5114048,19.0241774 11.5,19.0241774 C8.4885952,19.0241774 6.03630257,18.234859 6.03630257,17.7741774 C6.03630257,17.6632152 6.42198154,17.3278171 7.16428226,17.0668148 C7.55504431,16.929418 7.76043737,16.5012606 7.62304051,16.1104985 C7.48564365,15.7197365 7.05748626,15.5143434 6.66672421,15.6517403 C5.38903226,16.1009929 4.53630257,16.8425524 4.53630257,17.7741774 C4.53630257,19.5226347 7.64794414,20.5241774 11.5,20.5241774 C15.3520559,20.5241774 18.4636974,19.5226347 18.4636974,17.7741774 C18.4636974,16.7424504 17.5278123,16.1188116 15.8910606,15.639505 C15.4935412,15.5230954 15.0769194,15.7509799 14.9605098,16.1484993 Z M11.5,6.25337368 C8.7485083,6.25337368 6.51798356,8.48389842 6.51798356,11.2353901 C6.51798356,13.5783695 8.09109665,15.643588 11.1177435,17.4365523 L11.5,17.6629983 L11.8822565,17.4365523 C14.9089034,15.643588 16.4820164,13.5783695 16.4820164,11.2353901 C16.4820164,8.48389842 14.2514917,6.25337368 11.5,6.25337368 Z M11.5,7.75337368 C13.4230646,7.75337368 14.9820164,9.31232554 14.9820164,11.2353901 L14.9768736,11.4263998 C14.8945397,12.9517243 13.8224498,14.4109324 11.6766193,15.8001563 L11.4989836,15.9113737 L11.3233807,15.8001563 C9.08814064,14.353048 8.01798356,12.8300022 8.01798356,11.2353901 C8.01798356,9.31232554 9.57693542,7.75337368 11.5,7.75337368 Z M11.5,9.50292591 C10.5570015,9.50292591 9.7925501,10.2673773 9.7925501,11.2103758 C9.7925501,12.1533743 10.5570015,12.9178257 11.5,12.9178257 C12.4429985,12.9178257 13.2074499,12.1533743 13.2074499,11.2103758 C13.2074499,10.2673773 12.4429985,9.50292591 11.5,9.50292591 Z"></path>

</svg>