<?xml version="1.0" encoding="UTF-8"?>
<svg width="28px" height="28px" viewBox="0 0 28 28" version="1.1" xmlns="http://www.w3.org/2000/svg" xmlns:xlink="http://www.w3.org/1999/xlink">
                              <path d="M4.695,1.62 L4.69527713,4.43254462 C4.69527713,4.94538046 5.08131732,5.36805178 5.57865601,5.42581689 L5.69527713,5.43254462 L15.3047229,5.43254462 C15.8570076,5.43254462 16.3047229,4.98482937 16.3047229,4.43254462 L16.304,1.62 L19,1.62027185 C20.1045695,1.62027185 21,2.51570235 21,3.62027185 L21,22 C21,23.1045695 20.1045695,24 19,24 L2,24 C0.8954305,24 1.3527075e-16,23.1045695 0,22 L0,3.62027185 C-1.3527075e-16,2.51570235 0.8954305,1.62027185 2,1.62027185 L4.695,1.62 Z M13.8455793,17.3945678 C13.7291696,17.7920872 13.9570541,18.208709 14.3545735,18.3251187 C15.3767012,18.6244387 15.8487669,18.9390056 15.8487669,19.0202459 C15.8487669,19.4809276 13.3964743,20.2702459 10.3850695,20.2702459 C7.3736647,20.2702459 4.92137207,19.4809276 4.92137207,19.0202459 C4.92137207,18.9092838 5.30705104,18.5738857 6.04935177,18.3128834 C6.44011381,18.1754865 6.64550688,17.7473291 6.50811002,17.3565671 C6.37071316,16.965805 5.94255576,16.760412 5.55179372,16.8978088 C4.27410176,17.3470614 3.42137207,18.088621 3.42137207,19.0202459 C3.42137207,20.7687032 6.53301364,21.7702459 10.3850695,21.7702459 C14.2371254,21.7702459 17.3487669,20.7687032 17.3487669,19.0202459 C17.3487669,17.988519 16.4128818,17.3648802 14.7761301,16.8855736 C14.3786107,16.7691639 13.9619889,16.9970484 13.8455793,17.3945678 Z M10.3850695,7.49944223 C7.6335778,7.49944223 5.40305307,9.72996696 5.40305307,12.4814587 C5.40305307,14.824438 6.97616615,16.8896565 10.0028131,18.6826209 L10.3850695,18.9090669 L10.767326,18.6826209 C13.7939729,16.8896565 15.3670859,14.824438 15.3670859,12.4814587 C15.3670859,9.72996696 13.1365612,7.49944223 10.3850695,7.49944223 Z M10.3850695,8.99944223 C12.3081341,8.99944223 13.8670859,10.5583941 13.8670859,12.4814587 L13.8619431,12.6724683 C13.7796092,14.1977929 12.7075193,15.6570009 10.5616889,17.0462248 L10.3840531,17.1574422 L10.2084502,17.0462248 C7.97321014,15.5991166 6.90305307,14.0760707 6.90305307,12.4814587 C6.90305307,10.5583941 8.46200493,8.99944223 10.3850695,8.99944223 Z M10.3850695,10.7489945 C9.44207097,10.7489945 8.67761961,11.5134458 8.67761961,12.4564444 C8.67761961,13.3994429 9.44207097,14.1638942 10.3850695,14.1638942 C11.328068,14.1638942 12.0925194,13.3994429 12.0925194,12.4564444 C12.0925194,11.5134458 11.328068,10.7489945 10.3850695,10.7489945 Z" id="形状结合"></path>

</svg>