<?xml version="1.0" encoding="UTF-8"?>
<svg width="28px" height="28px" viewBox="0 0 28 28" version="1.1" xmlns="http://www.w3.org/2000/svg" xmlns:xlink="http://www.w3.org/1999/xlink">
                              <path d="M7.75303168,-4.4408921e-16 C8.05706632,-7.21984071e-16 8.3445883,0.138316864 8.5343473,0.375863873 L10.9827092,3.44080969 C11.1724682,3.6783567 11.4599902,3.81667357 11.7640248,3.81667357 L21,3.81667357 C22.1045695,3.81667357 23,4.71210407 23,5.81667357 L23,20.6219898 C23,21.7265593 22.1045695,22.6219898 21,22.6219898 L2,22.6219898 C0.8954305,22.6219898 1.3527075e-16,21.7265593 0,20.6219898 L0,2 C-1.3527075e-16,0.8954305 0.8954305,2.02906125e-16 2,-4.4408921e-16 L7.75303168,-4.4408921e-16 Z M16.977075,6.82804614 L6.02292505,6.82804614 C5.60871148,6.82804614 5.27292505,7.16383258 5.27292505,7.57804614 L5.27292505,17.2135635 C5.27292505,17.5131461 5.45120696,17.7839915 5.7263765,17.9024459 L11.2034515,20.2602048 C11.3927531,20.341695 11.6072469,20.341695 11.7965485,20.2602048 L17.2736235,17.9024459 C17.548793,17.7839915 17.727075,17.5131461 17.727075,17.2135635 L17.727075,7.57804614 C17.727075,7.16383258 17.3912885,6.82804614 16.977075,6.82804614 Z M16.226925,8.32804614 L16.226925,16.7190461 L11.499925,18.7540461 L6.77292505,16.7190461 L6.77292505,8.32804614 L16.226925,8.32804614 Z M11.5,9.54993563 L10.4256269,11.7268533 L8.02325562,12.0759383 L9.76162781,13.7704324 L9.35125381,16.1630964 L11.5,15.0334337 L13.6487462,16.1630964 L13.2383722,13.7704324 L14.9767444,12.0759383 L12.5743731,11.7268533 L11.5,9.54993563 Z"></path>

</svg>