<?xml version="1.0" standalone="no"?><!DOCTYPE svg PUBLIC "-//W3C//DTD SVG 1.1//EN" "http://www.w3.org/Graphics/SVG/1.1/DTD/svg11.dtd"><svg class="icon" width="200px" height="200.00px" viewBox="0 0 1024 1024" version="1.1" xmlns="http://www.w3.org/2000/svg"><path d="M0 0m120.470588 0l783.058824 0q120.470588 0 120.470588 120.470588l0 783.058824q0 120.470588-120.470588 120.470588l-783.058824 0q-120.470588 0-120.470588-120.470588l0-783.058824q0-120.470588 120.470588-120.470588Z" fill="#978615" /><path d="M120.470588 667.407059v31.623529h81.438118v211.606588h36.803765v-211.606588h81.076705v-31.683764H120.470588z m333.944471-4.818824c-35.779765 0-64.451765 12.288-85.534118 37.466353-20.118588 23.491765-29.997176 53.488941-29.997176 89.99153 0 36.141176 9.878588 65.776941 29.997176 88.545882 21.443765 24.576 51.440941 36.864 90.352941 36.864 21.082353 0 40.478118-2.770824 58.24753-8.192 16.685176-5.421176 31.322353-12.950588 43.971764-22.889412v-102.159059h-104.327529v31.683765h67.162353v52.826353a98.785882 98.785882 0 0 1-27.286588 11.926588 134.445176 134.445176 0 0 1-33.731765 4.397177c-30.298353 0-52.826353-8.493176-67.102118-25.539765-13.673412-15.661176-20.118588-38.189176-20.118588-67.463529 0-29.997176 7.168-53.488941 22.166588-70.53553 13.914353-16.384 32.707765-24.214588 56.19953-24.214588 19.094588 0 34.755765 4.096 46.381176 12.649412 11.565176 8.131765 19.034353 20.419765 22.467765 36.743529h37.466353c-4.457412-27.226353-15.36-47.344941-32.707765-60.958117-18.070588-14.336-42.586353-21.142588-73.607529-21.142589z m129.505882 4.818824l69.872941 243.230117h39.81553l49.392941-187.753411h1.385412l49.392941 187.753411h39.574588L903.529412 667.407059h-41.923765l-47.344941 189.500235h-1.385412l-49.754353-189.500235h-38.851765l-49.754352 189.500235h-1.325177l-47.405176-189.500235h-41.86353z" fill="#FFFFFF" /><path d="M512 120.470588a140.528941 140.528941 0 0 1 140.528941 140.528941v23.43153H662.588235a60.235294 60.235294 0 0 1 60.235294 60.235294v184.079059a60.235294 60.235294 0 0 1-60.235294 60.235294h-301.17647a60.235294 60.235294 0 0 1-60.235294-60.235294V344.666353a60.235294 60.235294 0 0 1 60.235294-60.235294h9.999059v-23.43153A140.528941 140.528941 0 0 1 512 120.470588z m0 46.863059c-50.176 0-91.136 39.454118-93.605647 89.027765l-0.120471 4.638117v23.43153h187.392v-23.43153c0-51.742118-41.923765-93.665882-93.665882-93.665882z" fill="#FFFFFF" /><path d="M547.117176 545.792h-70.234352l15.902117-95.653647a53.790118 53.790118 0 1 1 38.430118 0l15.902117 95.653647z" fill="#978615" /></svg>