<?xml version="1.0" standalone="no"?><!DOCTYPE svg PUBLIC "-//W3C//DTD SVG 1.1//EN" "http://www.w3.org/Graphics/SVG/1.1/DTD/svg11.dtd"><svg class="icon" width="200px" height="190.51px" viewBox="0 0 1075 1024" version="1.1" xmlns="http://www.w3.org/2000/svg"><path d="M718.4896 40.96h-384c-25.6 0-42.6496 17.0496-42.6496 42.6496V296.96l426.6496 213.3504 170.7008 64 170.6496-64V296.96l-341.3504-256z" fill="#21A366" /><path d="M291.84 296.96h426.6496v213.3504H291.84z" fill="#107C41" /><path d="M1059.84 83.6096V296.96h-341.3504v-256h298.7008c21.2992 0 42.6496 21.3504 42.6496 42.6496z" fill="#33C481" /><path d="M718.4896 510.3104H291.84V936.96c0 25.6 17.0496 42.6496 42.6496 42.6496h682.7008c25.6 0 42.6496-17.0496 42.6496-42.6496v-213.3504l-341.3504-213.2992z" fill="#185C37" /><path d="M624.64 254.3104H291.84v597.2992h324.2496c29.9008 0 59.7504-29.8496 59.7504-59.6992v-486.4c0-29.9008-21.3504-51.2-51.2-51.2z" fill="#000000" opacity=".5" /><path d="M581.9904 808.96H87.04c-29.8496 0-51.2-21.3504-51.2-51.2V262.8096c0-29.8496 21.3504-51.2 51.2-51.2h499.2c25.6 0 46.9504 21.3504 46.9504 51.2v499.2c0 25.6-21.3504 46.9504-51.2 46.9504z" fill="#107C41" /><path d="M180.8896 680.96L291.84 510.3104l-102.4-170.7008h81.0496l55.5008 106.7008c8.4992 12.8 8.4992 21.2992 12.8 25.6l12.8-25.6 59.6992-106.7008h76.8l-102.4 170.7008L492.3904 680.96H407.04L343.04 561.5104c0-4.3008-4.2496-8.5504-8.5504-17.1008 0 4.3008-4.2496 8.5504-8.4992 17.1008L261.9904 680.96H180.8896z" fill="#FFFFFF" /><path d="M718.4896 510.3104H1059.84v213.2992h-341.3504z" fill="#107C41" /></svg>