<?xml version="1.0" standalone="no"?><!DOCTYPE svg PUBLIC "-//W3C//DTD SVG 1.1//EN" "http://www.w3.org/Graphics/SVG/1.1/DTD/svg11.dtd"><svg class="icon" width="200px" height="200.00px" viewBox="0 0 1024 1024" version="1.1" xmlns="http://www.w3.org/2000/svg"><path d="M136.533542 0.000569a49.095084 49.095084 0 0 0-35.83998 15.359991A54.385748 54.385748 0 0 0 85.33357 51.20054v921.599488c0 13.539548 5.518219 26.510207 15.359992 35.839981 9.386661 9.671106 22.300432 15.246214 35.83998 15.359991h750.932916a49.095084 49.095084 0 0 0 35.83998-15.359991 50.574194 50.574194 0 0 0 15.359992-35.839981v-682.666287L648.533257 0.000569h-511.999715z" fill="#F91F00" /><path d="M426.723603 0.000569L85.33357 455.111427V51.20054C85.33357 40.562324 89.486457 29.867219 96.31312 20.708113L100.693562 15.36056a49.095084 49.095084 0 0 1 29.127095-14.90488L136.533542 0.000569h290.190061z" fill="#FF5600" /><path d="M318.634774-0.05632L85.33357 291.555962V51.20054C85.33357 40.562324 89.486457 29.867219 96.31312 20.708113L100.693562 15.36056a49.095084 49.095084 0 0 1 29.127095-14.90488L136.533542 0.000569l182.101232-0.056889z" fill="#FF9000" /><path d="M938.66643 290.133741h-238.933201a52.508415 52.508415 0 0 1-51.199972-51.199972V0.000569l290.133173 290.133172z" fill="#FFA18D" /><path d="M448.967146 489.81363c-7.395551-15.530658-14.506659-31.231983-22.072876-46.648863-3.98222-8.021329-11.036438-11.605327-19.911101-11.605327H309.475668c-8.647106 0.284444-13.42577 7.679996-9.841772 15.530658 5.745775 12.743104 11.832882 25.37243 17.749323 38.001757 14.335992 30.719983 28.671984 61.439966 43.064865 92.046171l40.391089 85.902175c0.568889 1.365333 1.365333 2.730665 2.275554 4.664886 0.796444-1.194666 1.47911-1.99111 1.934221-2.844443l56.831969-120.888822 32.881759-70.371516c12.970659-27.704873 25.599986-55.580414 38.968867-83.17151 11.775993-24.462209 31.516427-37.83109 58.936857-38.001756 65.422186-0.341333 130.844372-0.284444 196.266557-0.341333 31.288872-0.056889 52.053304 30.89065 39.196423 59.278189-16.156435 35.555536-33.109315 70.71285-49.663972 106.04083l-70.257739 149.731472-35.726203 76.003514c-4.323553 9.215995-8.135107 18.773323-13.141326 27.647984a42.552865 42.552865 0 0 1-41.358199 22.300432 42.723532 42.723532 0 0 1-38.627534-25.486208c-12.287993-25.599986-24.177764-51.370638-36.181313-77.084401-5.006219-10.695105-10.069328-21.276433-14.791103-32.028427a8.931551 8.931551 0 0 1-0.113778-6.542219c12.117327-26.168874 24.462209-52.28086 36.693313-78.335956 1.649777-3.527109 3.185776-7.054218 5.176886-11.548438l49.948417 106.382163c0.967111-1.706666 1.592888-2.730665 2.104888-3.811553l37.83109-80.554622 45.454197-96.938613c5.916441-12.686215 11.43466-25.543097 17.806212-38.001757 5.404441-10.638216-2.275554-17.806212-11.263994-17.692434-35.271092 0.398222-70.655961 0.227555-105.927052 0.113777-3.128887 0-4.664886 0.853333-6.030219 3.754665-10.638216 22.812432-21.503988 45.511086-32.199093 68.323517l-69.745739 148.593696c-17.863101 38.115534-35.669314 76.344846-53.646193 114.403492a42.83731 42.83731 0 0 1-40.959977 26.396429 42.951087 42.951087 0 0 1-41.187533-26.168874c-13.255104-27.818651-26.282652-55.75108-39.367089-83.569731l-33.678203-71.850627L226.929936 478.435859 196.266842 413.013673a41.983977 41.983977 0 0 1 28.273762-59.7333 51.541305 51.541305 0 0 1 11.662216-1.137778c64.73952-0.113778 129.479039-0.284444 194.218559 0 26.737763 0.113778 46.364419 12.799993 58.595523 36.636425 2.787554 5.518219 7.054218 11.207105 7.054218 16.839101 0 5.575108-4.380442 11.207105-6.997329 16.782213-11.150216 23.89332-22.357321 47.672862-33.564426 71.452405-0.568889 1.365333-1.308444 2.730665-2.275555 4.664886-1.592888-3.242665-3.015109-5.916441-4.266664-8.703995z" fill="#FFFFFF" /></svg>