<?xml version="1.0" standalone="no"?><!DOCTYPE svg PUBLIC "-//W3C//DTD SVG 1.1//EN" "http://www.w3.org/Graphics/SVG/1.1/DTD/svg11.dtd"><svg class="icon" width="200px" height="200.00px" viewBox="0 0 1024 1024" version="1.1" xmlns="http://www.w3.org/2000/svg"><path d="M1024 296.96V83.6096c0-25.6-17.0496-42.6496-42.6496-42.6496H298.6496c-25.6 0-42.6496 17.0496-42.6496 42.6496V296.96l384 85.3504L1024 296.96z" fill="#41A5EE" /><path d="M1024 296.96H256v213.3504l405.3504 85.2992L1024 510.3104z" fill="#2B7CD3" /><path d="M1024 510.3104H256v213.2992l384 64 384-64z" fill="#185ABD" /><path d="M1024 723.6096H256V936.96c0 25.6 17.0496 42.6496 42.6496 42.6496h682.7008c25.6 0 42.6496-17.0496 42.6496-42.6496v-213.3504z" fill="#103F91" /><path d="M588.8 254.3104H256v597.2992h324.2496c29.9008 0 59.7504-29.8496 59.7504-59.6992v-486.4c0-29.9008-21.3504-51.2-51.2-51.2z" fill="#000000" opacity=".5" /><path d="M546.1504 808.96H51.2c-29.8496 0-51.2-21.3504-51.2-51.2V262.8096c0-29.8496 21.3504-51.2 51.2-51.2h499.2c25.6 0 46.9504 21.3504 46.9504 51.2v499.2c0 25.6-21.3504 46.9504-51.2 46.9504z" fill="#185ABD" /><path d="M435.2 680.96H371.2L298.6496 446.3104 226.1504 680.96h-64L93.8496 339.6096H153.6l46.9504 238.9504 72.4992-230.4h51.2l68.3008 230.4 51.2-238.9504h59.6992L435.2 680.96z" fill="#FFFFFF" /></svg>