<?xml version="1.0" standalone="no"?><!DOCTYPE svg PUBLIC "-//W3C//DTD SVG 1.1//EN" "http://www.w3.org/Graphics/SVG/1.1/DTD/svg11.dtd"><svg class="icon" width="200px" height="200.00px" viewBox="0 0 1024 1024" version="1.1" xmlns="http://www.w3.org/2000/svg"><path d="M696.4736 25.6l38.912 39.936-8.8576-0.0512 190.4128 189.4912 0.0512-3.4304 38.912 39.936v635.392c0 34.0992-25.8048 62.0032-58.9824 65.3824l-6.7072 0.3584H243.3536a65.6384 65.6384 0 0 1-65.3312-58.9824l-0.3584-6.7584V91.2896c0-34.048 25.8048-61.952 58.9824-65.3312L243.3536 25.6h453.12z" fill="#13C2C2" /><path d="M696.4736 220.3136c0 39.424 31.9488 71.3728 71.3728 71.3728h188.2112L696.4736 25.6v194.7136z" fill="#C7E2FF" /><path d="M561.664 479.8976H162.816A91.136 91.136 0 0 1 71.68 388.7616V328.5504c0-50.3808 40.8064-91.136 91.136-91.136h398.848c50.3296 0 91.136 40.7552 91.136 91.136v60.2112a91.136 91.136 0 0 1-91.136 91.136z" fill="#006D75" /><path d="M114.8928 438.6304H179.712c49.9712 0 63.5904-17.7664 63.5904-46.592 0-21.1456-10.8544-31.5392-27.4432-36.864V354.304c17.5104-4.864 23.296-15.4624 23.296-32.0512 0-28.7744-14.08-43.52-64.512-43.52H114.8928v159.8976z m45.8752-97.024v-26.9312h8.4992c17.3056 0 24.2176 1.8432 24.2176 13.1072 0 11.9808-6.912 13.824-24.2176 13.824H160.768z m0 60.8256v-29.0304h11.9808c18.8928 0 24.1664 3.9424 24.1664 15.0016 0 11.264-5.5296 14.0288-24.1664 14.0288H160.768z m108.288 36.1984h44.4416V322.7136h1.3824l22.1184 90.3168h44.6976l22.8352-90.3168h1.3824v115.9168h44.9024V278.7328H378.7264L360.96 358.912h-1.3824l-15.6672-80.1792H269.056v159.8976z m212.1728 0h45.8752v-43.5712h16.384c47.872 0 66.048-14.4896 66.048-59.4432 0-41.216-15.616-56.8832-66.048-56.8832H481.1776v159.8976z m45.8752-79.9744v-44.6976h9.6768c18.6368 0 26.0096 5.0688 26.0096 22.8352 0 16.7936-6.912 21.8624-26.0096 21.8624h-9.728z" fill="#FFFFFF" /><path d="M311.1424 587.1104a90.7776 90.7776 0 1 0 181.5552 0 90.7776 90.7776 0 0 0-181.5552 0zM299.1616 832v47.7696h536.7808v-114.9952l-166.6048-153.9584-198.656 183.6544-66.048-61.2864z" fill="#87E8DE" /></svg>