<?xml version="1.0" standalone="no"?><!DOCTYPE svg PUBLIC "-//W3C//DTD SVG 1.1//EN" "http://www.w3.org/Graphics/SVG/1.1/DTD/svg11.dtd"><svg class="icon" width="200px" height="200.00px" viewBox="0 0 1024 1024" version="1.1" xmlns="http://www.w3.org/2000/svg"><path d="M563.2 358.4h281.6L563.2 76.8V358.4M204.8 0h409.6l307.2 307.2v614.4a102.4 102.4 0 0 1-102.4 102.4H204.8a102.4 102.4 0 0 1-102.4-102.4V102.4a102.4 102.4 0 0 1 102.4-102.4" fill="#F44336" /><path d="M211.7632 640.4096c0 29.184 0.9216 48.896 2.6624 59.1872 0.9216 5.4784 2.048 10.0352 3.4816 13.6192 1.536 3.5328 3.2256 7.168 5.12 11.0592 6.144 11.776 16.0768 22.1184 29.696 31.1296 13.4144 9.3184 30.208 14.2336 50.2272 14.6944 20.3264-0.512 37.2224-5.376 50.7392-14.6944 13.4144-9.0112 23.1424-19.3536 29.0816-31.1296 4.3008-6.1952 7.2704-14.4384 8.9088-24.6784 1.536-10.24 2.304-30.0032 2.304-59.1872 0-29.5936-0.768-49.4592-2.304-59.4944a58.5728 58.5728 0 0 0-8.9088-24.32 85.76 85.76 0 0 0-29.0816-31.488c-13.5168-9.3184-30.4128-14.1312-50.688-14.336-20.1216 0.2048-36.864 5.0176-50.2784 14.336a88.064 88.064 0 0 0-29.696 31.488c-3.8912 6.144-6.7584 14.336-8.6016 24.32-1.7408 10.0352-2.6624 29.9008-2.6624 59.4944z m38.912 0c0-25.088 0.8704-42.1376 2.7648-51.2512a42.24 42.24 0 0 1 9.984-21.1968 48.7936 48.7936 0 0 1 16.0768-13.1072c6.5536-3.3792 14.336-5.1712 23.4496-5.4272 9.216 0.256 17.2032 2.048 23.9616 5.4272a46.08 46.08 0 0 1 15.4112 13.1072 44.6464 44.6464 0 0 1 10.3424 21.1968c1.7408 9.1136 2.6112 26.1632 2.6112 51.2512 0 25.088-0.8704 42.0864-2.6112 50.944a44.8512 44.8512 0 0 1-10.3424 21.504 42.752 42.752 0 0 1-15.36 12.8 47.6672 47.6672 0 0 1-24.0128 5.7856 45.3632 45.3632 0 0 1-23.4496-5.7856 45.2608 45.2608 0 0 1-16.0768-12.8 42.496 42.496 0 0 1-9.984-21.504c-1.8944-8.8576-2.816-25.856-2.816-50.944zM439.0912 768h38.7072v-109.056h106.0352v-34.304H477.7984v-75.2128h124.2624v-36.5568H439.0912zM631.6032 768h86.6304c19.1488 0 35.328-4.1984 48.4864-12.5952 13.312-7.8336 23.6544-17.7152 31.1296-29.7472 2.816-4.5568 5.2224-8.9088 7.168-13.1072 1.8944-4.352 3.2768-9.216 4.1984-14.7456 2.048-10.8544 3.0208-29.952 3.0208-57.344 0-25.8048-0.6656-43.9808-1.9456-54.4768a76.8 76.8 0 0 0-11.776-30.1056c-17.2032-28.4672-43.1104-42.8032-77.6704-43.008h-89.2416V768z m38.7072-218.5728h46.1824c19.6096-0.512 34.7648 6.7072 45.5168 21.504a43.8784 43.8784 0 0 1 9.9328 23.296c1.024 9.5744 1.5872 25.4464 1.5872 47.616 0 22.7328-0.512 38.2464-1.536 46.5408a42.3936 42.3936 0 0 1-8.2432 20.8384c-9.8304 14.7968-25.6 22.2208-47.2576 22.2208h-46.1824V549.376z" fill="#FFFFFF" /></svg>