<?xml version="1.0" standalone="no"?><!DOCTYPE svg PUBLIC "-//W3C//DTD SVG 1.1//EN" "http://www.w3.org/Graphics/SVG/1.1/DTD/svg11.dtd"><svg class="icon" width="200px" height="160.00px" viewBox="0 0 1280 1024" version="1.1" xmlns="http://www.w3.org/2000/svg"><path d="M40.00128 25.6h406.848c21.248 0 41.6 8.448 56.576 23.424L634.24128 179.84c3.648 3.648 8.64 5.76 13.824 5.824h592c22.08 0 40 17.92 40 40v720c0 22.08-17.92 40-40 40H40.00128A40 40 0 0 1 0.00128 945.6V65.6C0.00128 43.52 17.92128 25.6 40.00128 25.6z" fill="#FFB900" /><path d="M0.00128 345.6h446.848c21.248 0 41.6-8.448 56.576-23.424L634.24128 191.36a19.904 19.904 0 0 1 13.824-5.824h592c22.08 0 40 17.92 40 40v720c0 22.08-17.92 40-40 40H40.00128A40 40 0 0 1 0.00128 945.6V345.6z" fill="#FFD75E" /><path d="M0.00128 905.6h1280v40c0 22.08-17.92 40-40 40H40.00128A40 40 0 0 1 0.00128 945.6v-40z" fill="#DA7B16" /></svg>