<?xml version="1.0" standalone="no"?><!DOCTYPE svg PUBLIC "-//W3C//DTD SVG 1.1//EN" "http://www.w3.org/Graphics/SVG/1.1/DTD/svg11.dtd"><svg class="icon" width="200px" height="200.00px" viewBox="0 0 1024 1024" version="1.1" xmlns="http://www.w3.org/2000/svg"><path d="M221.542656 308.3776v249.344H25.600256V378.3168c0-38.6048 31.2832-69.888 69.888-69.888H221.542656z" fill="#5472F1" /><path d="M589.824256 2.816l1.6896 0.6144 3.0208 1.3312a136.0384 136.0384 0 0 1 11.52 5.888 271.9744 271.9744 0 0 1 19.6608 12.3904c3.4816 2.304 7.0656 4.8128 10.752 7.4752 14.1312 10.24 29.9008 22.7328 46.6432 36.8128 7.68 6.4 15.4624 13.1072 23.4496 20.1216l0.9728 0.8704-1.024-0.8704a1850.5216 1850.5216 0 0 1 78.4896 73.216l5.2736 5.2224 9.7792 9.7792 9.728 9.8304c85.504 86.8352 160.768 177.664 160.768 207.5648v548.7616c0 45.4144-36.864 82.176-82.176 82.176H213.401856a82.176 82.176 0 0 1-79.9232-62.976l-0.3072-47.0016-1.9456-279.7568V82.176C131.225856 36.7616 168.038656 0 213.401856 0h364.3392c2.1504 0 4.608 0.4608 7.3728 1.2288l4.7616 1.536z" fill="#1890FF" /><path d="M970.496256 393.0624v34.7648a132.5056 132.5056 0 0 0-132.5056-132.5056h-80.64a82.176 82.176 0 0 1-82.176-82.176V132.5056A132.5056 132.5056 0 0 0 542.720256 0h34.7648a236.032 236.032 0 0 1 166.912 69.12l157.0304 157.0816a236.032 236.032 0 0 1 69.12 166.912z" fill="#BED8FB" /><path d="M687.462656 621.824v184.2688a107.9296 107.9296 0 0 1-107.9296 107.9296H133.120256l-1.8944-279.7568v-120.3712h448.3072c59.5968 0 107.9296 48.3328 107.9296 107.9296z" fill="#165DFF" /><path d="M757.350656 556.032v184.32a107.9296 107.9296 0 0 1-107.9296 107.8784H95.488256A69.8368 69.8368 0 0 1 25.600256 778.3424V378.2656a69.632 69.632 0 0 0 63.744 69.5808c2.048 0.2048 4.096 0.3072 6.144 0.3072h553.984c59.5456 0 107.8784 48.2816 107.8784 107.8784z" fill="#2041CA" /><path d="M89.344256 447.8464v400.128A69.8368 69.8368 0 0 1 25.600256 778.3424V378.2656a69.632 69.632 0 0 0 63.744 69.5808z" fill="#2041CA" /><path d="M433.305856 640.8704l58.0096-82.3296a15.4624 15.4624 0 0 0-25.2416-17.7664l-51.6608 73.216-51.5584-73.216a15.4624 15.4624 0 0 0-25.2416 17.7664l57.9072 82.3296-67.84 96.256a15.4624 15.4624 0 1 0 25.2928 17.8176l61.44-87.2448 61.3376 87.2448a15.4112 15.4112 0 1 0 25.2928-17.7664l-67.7376-96.256z m-140.544-106.6496H184.320256a15.4624 15.4624 0 1 0 0 30.8736h38.5536v180.9408a15.4624 15.4624 0 1 0 30.8736 0v-180.9408h39.0144a15.4624 15.4624 0 1 0 0-30.8736z m351.6416 0H535.961856a15.4624 15.4624 0 1 0 0 30.8736h38.5536v180.9408a15.4624 15.4624 0 1 0 30.9248 0v-180.9408h38.9632a15.4624 15.4624 0 1 0 0-30.8736z" fill="#FFFFFF" /></svg>