<?xml version="1.0" standalone="no"?><!DOCTYPE svg PUBLIC "-//W3C//DTD SVG 1.1//EN" "http://www.w3.org/Graphics/SVG/1.1/DTD/svg11.dtd"><svg t="1683684443993" class="icon" viewBox="0 0 1024 1024" version="1.1" xmlns="http://www.w3.org/2000/svg" p-id="8638" xmlns:xlink="http://www.w3.org/1999/xlink" width="200" height="200"><path d="M344.367707 113.312854h150.911859V0.00096h171.455839a97.919908 97.919908 0 0 1 69.951934 29.119973l228.799786 233.727781c16.895984 17.279984 26.335975 40.191962 26.335975 63.99994V930.880087C991.8231 982.336039 948.71914 1024 895.50319 1024H128.14391C74.89596 1024 31.824 982.336039 31.824 930.880087V93.120873C31.824 41.632921 74.92796 0.00096 128.14391 0.00096h216.223797v113.311894z m150.911859 340.92768H344.367707V544.00045H197.327845v127.99988c0 33.727968 27.007975 61.375942 61.279942 63.83994l4.927996 0.16h165.535845c34.879967 0 63.48794-26.111976 66.015938-59.199945l0.192-4.799995v-217.759796zM410.319645 608.00039v47.999955c0 8.191992-7.071993 14.975986-16.159985 15.903985l-2.143998 0.096H300.623748c-9.375991 0-17.119984-6.175994-18.175983-14.143987l-0.096-1.855998V608.00039h127.99988z m-212.9918-267.07175v113.311894h147.039862v-113.279894l-147.039862-0.032z m297.919721-114.303892H344.399707v114.335892l150.911858-0.032V226.624748z m-297.919721-113.311894v113.311894h147.039862v-113.279894L197.327845 113.280854z" fill="#FFA940" p-id="8639"></path></svg>