<?xml version="1.0" standalone="no"?><!DOCTYPE svg PUBLIC "-//W3C//DTD SVG 1.1//EN" "http://www.w3.org/Graphics/SVG/1.1/DTD/svg11.dtd"><svg class="icon" width="200px" height="200.00px" viewBox="0 0 1024 1024" version="1.1" xmlns="http://www.w3.org/2000/svg"><path d="M136.533542-0.05632a49.095084 49.095084 0 0 0-35.83998 15.359991 54.385748 54.385748 0 0 0-15.359992 35.839981v921.599488c0 13.539548 5.518219 26.510207 15.359992 35.83998 9.386661 9.671106 22.300432 15.246214 35.83998 15.359991h750.932916a49.095084 49.095084 0 0 0 35.83998-15.359991 50.574194 50.574194 0 0 0 15.359992-35.83998v-682.666288l-290.133173-290.133172h-511.999715z" fill="#237804" /><path d="M426.723603 0.000569L85.33357 455.111427V51.20054C85.33357 40.562324 89.486457 29.867219 96.31312 20.708113L100.693562 15.36056a49.095084 49.095084 0 0 1 29.127095-14.90488L136.533542 0.000569h290.190061z" fill="#2E910A" /><path d="M318.634774-0.05632L85.33357 291.555962V51.20054C85.33357 40.562324 89.486457 29.867219 96.31312 20.708113L100.693562 15.36056a49.095084 49.095084 0 0 1 29.127095-14.90488L136.533542 0.000569l182.101232-0.056889zM938.66643 290.133741h-238.933201a52.508415 52.508415 0 0 1-51.199972-51.199972V0.000569l290.133173 290.133172z" fill="#39A412" /><path d="M305.89167 739.555714h206.904774v-46.421308H354.986754v-95.118169h134.655925v-43.576865H354.986754V461.994979h157.80969v-46.421308H305.89167zM613.887943 739.555714h49.32264V459.321203h88.689728v-43.804421H525.198215v43.804421h88.689728z" fill="#FFFFFF" /></svg>