<?xml version="1.0" standalone="no"?><!DOCTYPE svg PUBLIC "-//W3C//DTD SVG 1.1//EN" "http://www.w3.org/Graphics/SVG/1.1/DTD/svg11.dtd"><svg class="icon" width="200px" height="200.00px" viewBox="0 0 1024 1024" version="1.1" xmlns="http://www.w3.org/2000/svg"><path fill="#bd8cbb" d="M563.2 358.4h281.6L563.2 76.8V358.4M204.8 0h409.6l307.2 307.2v614.4a102.4 102.4 0 0 1-102.4 102.4H204.8a102.4 102.4 0 0 1-102.4-102.4V102.4a102.4 102.4 0 0 1 102.4-102.4m252.416 534.528c20.992 46.08 47.616 83.968 78.336 110.08l20.992 16.384c-44.544 8.192-105.984 22.528-171.008 47.616l-5.632 2.048 25.6-53.248c23.04-44.544 39.936-84.992 51.712-122.88m331.776 195.072c9.216-9.216 13.824-20.992 14.336-33.792 1.536-10.24-1.024-19.968-6.144-28.16-14.848-24.064-53.248-35.328-116.736-35.328l-66.048 3.584-44.544-29.696c-32.256-26.624-61.44-73.216-81.92-131.072l2.048-7.168c16.896-68.096 32.768-150.528-1.024-184.32a43.6736 43.6736 0 0 0-31.232-12.288H445.44c-18.944 0-35.84 19.968-40.448 39.424-18.944 68.096-7.68 105.472 11.264 167.424v0.512c-12.8 45.056-29.184 97.28-55.296 150.016l-49.152 92.16-45.568 25.088c-61.44 38.4-90.624 81.408-96.256 108.544-2.048 9.728-1.024 18.432 2.56 27.648l1.536 2.56 24.576 15.872 22.528 5.632c41.472 0 88.576-48.64 152.064-157.184l9.216-3.584c52.736-16.896 118.272-28.672 206.336-38.4 52.736 26.112 114.688 37.888 153.6 37.888 22.528 0 37.888-5.632 46.592-15.36m-20.992-36.352l4.608 5.632c-0.512 5.12-2.048 5.632-4.608 6.656h-2.048l-9.728 1.024c-23.552 0-59.904-9.728-97.28-26.112 4.608-5.12 6.656-5.12 11.776-5.12 71.68 0 92.16 12.8 97.28 17.92M298.496 768c-33.28 60.928-63.488 94.72-86.528 102.4 2.56-19.456 25.6-53.248 61.952-86.528l24.576-15.872m154.624-353.792c-11.776-46.08-12.288-83.456-3.584-104.96l3.584-6.144 7.68 2.56c8.704 12.288 9.728 28.672 4.608 56.32l-1.536 8.192-8.192 41.984-2.56 2.048z"  /></svg>