<?xml version="1.0" standalone="no"?><!DOCTYPE svg PUBLIC "-//W3C//DTD SVG 1.1//EN" "http://www.w3.org/Graphics/SVG/1.1/DTD/svg11.dtd"><svg class="icon" width="200px" height="200.00px" viewBox="0 0 1024 1024" version="1.1" xmlns="http://www.w3.org/2000/svg"><path d="M927.232 967.168H197.12V57.4976h521.3696L927.232 265.216z" fill="#1890FF" /><path d="M916.992 251.5456l2.56 671.9488a27.904 27.904 0 0 1-28.0064 27.9552H242.0224a27.904 27.904 0 0 1-28.0064-27.9552V94.5664c0-15.5648 12.4416-28.0064 28.0064-28.0064l493.3632-1.024-38.912-39.936h-453.12c-36.352 0-65.6896 29.3376-65.6896 65.6896v835.584c0 36.352 29.3376 65.7408 65.6896 65.7408h646.8608c36.352 0 65.6896-29.3888 65.6896-65.7408V291.4816l-38.912-39.936z" fill="#1890FF" /><path d="M696.4736 220.3136c0 39.424 31.9488 71.3728 71.3728 71.3728h188.2112L696.4736 25.6v194.7136z" fill="#C7E2FF" /><path d="M561.664 479.8976H162.816A91.136 91.136 0 0 1 71.68 388.7616V328.5504c0-50.3808 40.8064-91.136 91.136-91.136h398.848c50.3296 0 91.136 40.7552 91.136 91.136v60.2112a91.136 91.136 0 0 1-91.136 91.136z" fill="#0050B3" /><path d="M204.288 285.184h48.2816v84.6336c0 17.7664-1.536 31.232-4.7616 40.6528a47.104 47.104 0 0 1-18.944 23.552c-9.5744 6.4512-21.6576 9.728-36.5056 9.728-15.7184 0-28.0064-2.048-36.5568-6.3488a44.9024 44.9024 0 0 1-19.968-18.5856 69.1712 69.1712 0 0 1-8.3456-30.3616l46.08-6.3488c0 6.8608 0.6656 11.9808 1.8944 15.36a16.384 16.384 0 0 0 5.7856 8.0384c1.8944 1.3824 4.4544 2.048 7.8336 2.048 5.4784 0 9.4208-2.048 11.776-5.9904 2.56-3.8912 3.7888-10.752 3.7888-20.1216V285.184H204.288z m80.0256 0h80.0768c17.408 0 30.5152 4.096 39.0656 12.4416 8.704 8.3968 12.9536 20.1728 12.9536 35.328 0 15.7184-4.7616 28.0064-14.1312 36.864-9.4208 8.9088-23.9104 13.312-43.3664 13.312h-26.2656v57.856h-48.3328V285.184z m48.3328 66.4064h11.776c9.216 0 15.872-1.536 19.6096-4.8128a15.616 15.616 0 0 0 5.632-12.4416 17.408 17.408 0 0 0-4.9664-12.4416c-3.2256-3.4304-9.3696-5.12-18.432-5.12h-13.6192v34.816z m187.392 32.9216v-32.4096h74.3936v66.3552c-14.1824 9.728-26.7776 16.384-37.7344 19.8144a130.816 130.816 0 0 1-38.912 5.2736c-18.432 0-33.5872-3.072-45.2096-9.3696a65.5872 65.5872 0 0 1-27.136-28.16 91.5456 91.5456 0 0 1-9.5744-42.8544c0-17.0496 3.584-31.744 10.5984-44.3392 7.0144-12.6464 17.2544-22.2208 30.8736-28.672 10.5984-4.9664 24.7808-7.5264 42.7008-7.5264 17.2032 0 30.0032 1.536 38.5536 4.608 8.5504 3.072 15.7184 8.0384 21.1456 14.4896 5.632 6.5024 9.9328 14.848 12.6464 24.9344l-46.4384 8.3456a24.8832 24.8832 0 0 0-9.728-13.4656 30.72 30.72 0 0 0-17.408-4.608c-10.5472 0-18.944 3.584-25.2416 10.9056-6.2976 7.3728-9.3696 18.944-9.3696 34.816 0 16.896 3.2256 28.8768 9.5232 36.1984 6.3488 7.168 15.2064 10.752 26.4704 10.752a49.92 49.92 0 0 0 15.36-2.4064c4.9664-1.536 10.3936-4.2496 16.7424-7.9872V384.512h-32.256z" fill="#FFFFFF" /><path d="M311.1424 587.1104a90.7776 90.7776 0 1 0 181.5552 0 90.7776 90.7776 0 0 0-181.5552 0zM299.1616 832v47.7696h536.7808v-114.9952l-166.6048-153.9584-198.656 183.6544-66.048-61.2864z" fill="#91D5FF" /></svg>