<?xml version="1.0" standalone="no"?><!DOCTYPE svg PUBLIC "-//W3C//DTD SVG 1.1//EN" "http://www.w3.org/Graphics/SVG/1.1/DTD/svg11.dtd"><svg class="icon" width="200px" height="200.00px" viewBox="0 0 1024 1024" version="1.1" xmlns="http://www.w3.org/2000/svg"><path d="M696.4736 25.6l38.912 39.936-8.8576-0.0512 190.4128 189.4912 0.0512-3.4304 38.912 39.936v635.392c0 34.0992-25.8048 62.0032-58.9824 65.3824l-6.7072 0.3584H243.3536a65.6384 65.6384 0 0 1-65.3312-58.9824l-0.3584-6.7584V91.2896c0-34.048 25.8048-61.952 58.9824-65.3312L243.3536 25.6h453.12z" fill="#9254DE" /><path d="M696.4736 220.3136c0 39.424 31.9488 71.3728 71.3728 71.3728h188.2112L696.4736 25.6v194.7136z" fill="#EFDBFF" /><path d="M561.664 479.8976H162.816A91.136 91.136 0 0 1 71.68 388.7616V328.5504c0-50.3808 40.8064-91.136 91.136-91.136h398.848c50.3296 0 91.136 40.7552 91.136 91.136v60.2112a91.136 91.136 0 0 1-91.136 91.136z" fill="#391085" /><path d="M261.12 283.7504H139.264v40.0896h37.9904v119.808h45.568v-119.808H261.12v-40.0896z m78.7968 159.8976h45.824V283.7504H339.968v159.8976z m239.8208-120.2688v-39.6288H475.392v159.8976h45.824v-55.296h53.7088V349.184H521.216v-25.8048h58.5216z" fill="#FFFFFF" /><path d="M311.1424 587.1104a90.7776 90.7776 0 1 0 181.5552 0 90.7776 90.7776 0 0 0-181.5552 0zM299.1616 832v47.7696h536.7808v-114.9952l-166.6048-153.9584-198.656 183.6544-66.048-61.2864z" fill="#B37FEB" /></svg>