<?xml version="1.0" standalone="no"?><!DOCTYPE svg PUBLIC "-//W3C//DTD SVG 1.1//EN" "http://www.w3.org/Graphics/SVG/1.1/DTD/svg11.dtd"><svg class="icon" width="200px" height="200.00px" viewBox="0 0 1024 1024" version="1.1" xmlns="http://www.w3.org/2000/svg"><path d="M927.232 967.168H197.12V57.4976h521.3696L927.232 265.216z" fill="#52C41A" /><path d="M916.992 251.5456l2.56 671.9488a27.904 27.904 0 0 1-28.0064 27.9552H242.0224a27.904 27.904 0 0 1-28.0064-27.9552V94.5664c0-15.5648 12.4416-28.0064 28.0064-28.0064l493.3632-1.024-38.912-39.936h-453.12c-36.352 0-65.6896 29.3376-65.6896 65.6896v835.584c0 36.352 29.3376 65.7408 65.6896 65.7408h646.8608c36.352 0 65.6896-29.3888 65.6896-65.7408V291.4816l-38.912-39.936z" fill="#52C41A" /><path d="M696.4736 220.3136c0 39.424 31.9488 71.3728 71.3728 71.3728h188.2112L696.4736 25.6v194.7136z" fill="#B7EB8F" /><path d="M561.664 479.8976H162.816A91.136 91.136 0 0 1 71.68 388.7616V328.5504c0-50.3808 40.8064-91.136 91.136-91.136h398.848c50.3296 0 91.136 40.7552 91.136 91.136v60.2112a91.136 91.136 0 0 1-91.136 91.136z" fill="#266E0B" /><path d="M119.6544 285.184H199.68c17.408 0 30.5664 4.096 39.0656 12.4416 8.704 8.3968 13.0048 20.1728 13.0048 35.328 0 15.7184-4.8128 28.0064-14.1824 36.864-9.3696 8.9088-23.9104 13.312-43.3664 13.312H167.936v57.856h-48.2816V285.184z m48.2816 66.4064h11.776c9.216 0 15.872-1.536 19.6096-4.8128a15.616 15.616 0 0 0 5.632-12.4416 17.408 17.408 0 0 0-4.9152-12.4416c-3.2768-3.4304-9.4208-5.12-18.432-5.12H167.936v34.816zM277.3504 285.184h44.8512L380.928 371.3536V285.184h45.4144v155.8016H380.928L322.56 355.4816v85.504h-45.2096V285.184zM536.576 384.512v-32.4096h74.3936v66.3552c-14.1312 9.728-26.7776 16.384-37.6832 19.8144a125.44 125.44 0 0 1-38.912 5.2736c-18.432 0-33.6384-3.072-45.2608-9.3696a65.5872 65.5872 0 0 1-27.136-28.16 91.5456 91.5456 0 0 1-9.5232-42.8544c0-17.0496 3.584-31.744 10.5472-44.3392 7.0144-12.6464 17.2544-22.2208 30.9248-28.672 10.5472-4.9664 24.7296-7.5264 42.6496-7.5264 17.2544 0 30.0544 1.536 38.5536 4.608 8.5504 3.072 15.7184 8.0384 21.1968 14.4896 5.632 6.5024 9.8816 14.848 12.5952 24.9344l-46.3872 8.3456a24.8832 24.8832 0 0 0-9.728-13.4656 30.72 30.72 0 0 0-17.408-4.608c-10.5984 0-18.944 3.584-25.2928 10.9056-6.2976 7.3728-9.3696 18.944-9.3696 34.816 0 16.896 3.2256 28.8768 9.5744 36.1984 6.2976 7.168 15.1552 10.752 26.4192 10.752a49.92 49.92 0 0 0 15.36-2.4064c4.9664-1.536 10.4448-4.2496 16.7424-7.9872V384.512h-32.256z" fill="#FFFFFF" /><path d="M263.3216 729.7536a56.4736 56.4736 0 1 0 112.9984 0 56.4736 56.4736 0 0 0-112.9984 0zM464.7424 629.0944a56.4736 56.4736 0 1 0 112.9472 0 56.4736 56.4736 0 0 0-112.9472 0zM698.88 616.8064a56.4736 56.4736 0 1 0 112.9984 0 56.4736 56.4736 0 0 0-112.9984 0z" fill="#95DE64" /><path d="M354.1504 876.1856s-9.9328-62.2592-24.576-103.0656c-14.6944-40.96 0-43.3664 0-43.3664s80.1792 106.496 148.992 68.8128c68.7616-37.7344 37.6832-147.3024 37.6832-147.3024l24.576-8.192s30.208 103.0656 104.8064 101.5296c74.5984-1.536 99.84-101.5296 99.84-101.5296l29.5424-13.9776L843.776 752.64v123.5456H354.1504z" fill="#95DE64" /></svg>